<svg width="36" height="36" viewBox="0 0 36 36" fill="none" xmlns="http://www.w3.org/2000/svg">
<path d="M3.67989 35.8701C3.4221 35.7462 3.20988 35.5443 3.07344 35.293C2.937 35.0416 2.88328 34.7537 2.91988 34.4701C2.91988 32.8201 2.91988 31.1701 2.91988 29.4701V29.0601H33.4999V29.4301C33.4999 31.1001 33.4999 32.7601 33.4999 34.4301C33.5365 34.7137 33.4828 35.0017 33.3463 35.253C33.2099 35.5043 32.9977 35.7062 32.7399 35.83L3.67989 35.8701Z" fill="white"/>
<path d="M35.8499 26.22C35.7489 26.4845 35.5618 26.7073 35.3187 26.8525C35.0756 26.9976 34.7907 27.0566 34.5099 27.02H1.90989C0.909887 27.02 0.589941 26.67 0.589941 25.7V23.56C0.562318 23.391 0.575298 23.2177 0.627844 23.0547C0.680389 22.8916 0.770983 22.7434 0.892126 22.6222C1.01327 22.5011 1.16149 22.4105 1.32456 22.3579C1.48763 22.3054 1.66085 22.2924 1.82993 22.32H34.5299C34.8107 22.2839 35.0953 22.3458 35.3358 22.4952C35.5763 22.6446 35.7578 22.8723 35.8499 23.1401V26.22Z" fill="white"/>
<path d="M25.9999 0.580078C27.7864 0.58784 29.5143 1.21817 30.8861 2.36255C32.258 3.50693 33.1879 5.09379 33.516 6.84991C33.844 8.60604 33.5495 10.4216 32.6833 11.984C31.817 13.5464 30.4332 14.758 28.7699 15.4101C28.5131 15.5021 28.2923 15.6738 28.1399 15.9001C27.7299 16.5001 27.2999 17.0801 26.8699 17.6601C26.786 17.8239 26.6585 17.9614 26.5014 18.0573C26.3444 18.1533 26.1639 18.2041 25.9799 18.2041C25.7958 18.2041 25.6154 18.1533 25.4583 18.0573C25.3013 17.9614 25.1739 17.8239 25.0899 17.6601C24.6299 17.0401 24.1899 16.4101 23.7299 15.7901C23.6198 15.6514 23.4749 15.5444 23.3099 15.4801C21.7156 14.8869 20.3633 13.781 19.4654 12.3362C18.5674 10.8914 18.1746 9.18932 18.3485 7.4971C18.5224 5.80488 19.2532 4.21828 20.4262 2.9863C21.5993 1.75431 23.1482 0.946662 24.8299 0.690094C25.1999 0.630094 25.5899 0.610078 25.9999 0.580078ZM27.4099 8.27008C27.7399 7.95008 28.0399 7.68009 28.3199 7.40009C28.4151 7.30291 28.4903 7.18792 28.541 7.06171C28.5918 6.93549 28.6172 6.80053 28.6158 6.66449C28.6144 6.52845 28.5863 6.39401 28.5329 6.26886C28.4796 6.14371 28.4021 6.0303 28.3049 5.93509C28.2077 5.83988 28.0927 5.76476 27.9665 5.71399C27.8403 5.66322 27.7053 5.6378 27.5693 5.63919C27.4333 5.64058 27.2988 5.66876 27.1737 5.72211C27.0485 5.77545 26.9351 5.85293 26.8399 5.9501C26.5599 6.2401 26.2899 6.5301 25.9999 6.8501C25.6699 6.5201 25.3999 6.22009 25.1099 5.94009C25.014 5.84423 24.9002 5.76819 24.775 5.71631C24.6497 5.66443 24.5155 5.63773 24.3799 5.63773C24.2443 5.63773 24.1101 5.66443 23.9848 5.71631C23.8596 5.76819 23.7458 5.84423 23.6499 5.94009C23.5541 6.03596 23.478 6.14977 23.4261 6.27502C23.3742 6.40028 23.3475 6.53453 23.3475 6.6701C23.3475 6.80568 23.3742 6.9399 23.4261 7.06516C23.478 7.19041 23.5541 7.30422 23.6499 7.40009C23.9299 7.69009 24.2299 7.96009 24.5599 8.28009L23.6799 9.11008C23.5847 9.2066 23.5094 9.32095 23.4584 9.44656C23.4074 9.57217 23.3816 9.70659 23.3825 9.84216C23.3835 9.97774 23.4111 10.1118 23.4638 10.2367C23.5166 10.3616 23.5934 10.4749 23.6899 10.5701C23.7864 10.6653 23.9008 10.7406 24.0264 10.7916C24.152 10.8426 24.2864 10.8684 24.422 10.8675C24.5575 10.8665 24.6916 10.8389 24.8165 10.7862C24.9414 10.7334 25.0547 10.6566 25.1499 10.5601C25.4199 10.2901 25.6699 9.99008 25.9499 9.68008L26.8599 10.6101C26.9558 10.7059 27.0696 10.782 27.1949 10.8339C27.3201 10.8858 27.4544 10.9125 27.5899 10.9125C27.7255 10.9125 27.8597 10.8858 27.985 10.8339C28.1102 10.782 28.224 10.7059 28.3199 10.6101C28.4158 10.5142 28.4918 10.4004 28.5437 10.2752C28.5956 10.1499 28.6223 10.0157 28.6223 9.8801C28.6223 9.74452 28.5956 9.61027 28.5437 9.48502C28.4918 9.35976 28.4158 9.24595 28.3199 9.15009L27.4099 8.27008Z" fill="white"/>
<path d="M4.37988 20.2199C4.79261 19.0421 5.53518 18.0078 6.51917 17.2401C7.50315 16.4724 8.68705 16.0037 9.92987 15.8899C9.54521 15.7538 9.1709 15.59 8.80988 15.3999C8.44827 15.1628 8.13028 14.8651 7.86987 14.5199C7.61801 14.166 7.44111 13.7643 7.34998 13.3396C7.25884 12.9149 7.25542 12.476 7.3399 12.0499C7.4779 11.2919 7.88886 10.6108 8.49512 10.1354C9.10137 9.65995 9.86086 9.42321 10.6299 9.46991C11.3864 9.51285 12.1032 9.82286 12.6525 10.3448C13.2019 10.8667 13.5482 11.5666 13.6299 12.3199C13.7106 13.1554 13.4671 13.9898 12.9496 14.6507C12.4321 15.3115 11.6803 15.748 10.8499 15.8699C12.1143 15.9692 13.3229 16.433 14.3292 17.205C15.3355 17.9771 16.0965 19.0243 16.5199 20.2199H4.37988Z" fill="white"/>
</svg>
