<svg width="93" height="92" viewBox="0 0 93 92" fill="none" xmlns="http://www.w3.org/2000/svg">
<path d="M18.1799 21.1701L17.1199 20.0401C16.9589 20.3953 16.7576 20.7309 16.5199 21.0401C13.9499 23.6401 11.3499 26.2301 8.7599 28.8101C7.3399 30.2401 6.75986 30.2601 5.33986 28.8101C0.899858 24.2201 -0.610166 18.8101 1.18983 12.6801C1.92909 9.84088 3.46967 7.27432 5.62758 5.28663C7.78549 3.29894 10.4696 1.97404 13.3599 1.47004C19.3599 0.220042 24.4299 2.0301 28.6399 6.4001C28.8353 6.56552 28.9897 6.77385 29.0912 7.00886C29.1927 7.24387 29.2384 7.49921 29.2249 7.75483C29.2113 8.01046 29.1388 8.25947 29.0131 8.48243C28.8873 8.70539 28.7116 8.89622 28.4999 9.04005C25.8332 11.7067 23.1666 14.3734 20.4999 17.0401C20.1857 17.2966 19.8513 17.5274 19.4999 17.7301L20.4999 18.7301C26.8986 12.8886 35.0319 9.29964 43.6599 8.51008H37.5199C35.9399 8.51008 35.4199 7.97009 35.4099 6.39009C35.4099 5.01009 35.4099 3.63008 35.4099 2.26008C35.3787 2.01408 35.4043 1.7642 35.4849 1.52967C35.5655 1.29515 35.6988 1.08222 35.8746 0.907359C36.0505 0.732494 36.2641 0.600349 36.499 0.521068C36.734 0.441786 36.984 0.417494 37.2299 0.450084H56.1699C56.4146 0.421176 56.6626 0.44808 56.8954 0.528819C57.1282 0.609559 57.3395 0.742004 57.5137 0.916209C57.6879 1.09042 57.8204 1.30186 57.9011 1.53462C57.9819 1.76738 58.0088 2.01542 57.9799 2.26008C57.9799 3.74008 57.9799 5.22008 57.9799 6.70008C58.0094 6.94532 57.9826 7.19408 57.9013 7.42732C57.8199 7.66056 57.6864 7.87209 57.5108 8.04579C57.3351 8.21948 57.1221 8.35072 56.888 8.42945C56.6538 8.50819 56.4048 8.53234 56.1599 8.50007C54.0199 8.50007 51.8699 8.50008 49.7199 8.57008C58.3383 9.30611 66.4727 12.8671 72.8599 18.7001L73.7599 17.8701C73.4899 17.5801 73.2499 17.3201 72.9899 17.0701C70.3232 14.4034 67.6565 11.7367 64.9899 9.07008C63.8299 7.91008 63.8299 7.18008 64.9899 6.01008C69.5299 1.47008 74.9899 -0.179909 81.1299 1.52009C83.9309 2.19846 86.4818 3.65816 88.4857 5.72938C90.4897 7.8006 91.8643 10.3982 92.4498 13.22C93.9598 19.43 92.1199 24.7501 87.5499 29.1501C86.6899 29.9901 85.8499 29.9401 84.9199 29.0101C82.2533 26.3434 79.5665 23.6767 76.8599 21.0101C76.6063 20.7148 76.3757 20.4005 76.1699 20.0701L75.1699 21.0701C75.7599 21.7901 76.3399 22.4701 76.8999 23.1701C82.8062 30.5449 85.8 39.8312 85.3134 49.267C84.8267 58.7029 80.8935 67.6319 74.2599 74.3601C74.0096 74.569 73.8341 74.8538 73.7601 75.1714C73.6862 75.489 73.7176 75.822 73.8499 76.1201C74.6599 78.7101 75.4499 81.3101 76.1499 83.9401C76.4957 85.2508 76.4123 86.6378 75.912 87.8977C75.4117 89.1575 74.5207 90.2238 73.3699 90.9401C72.2253 91.6619 70.8832 92.0068 69.5325 91.926C68.1817 91.8453 66.8903 91.3431 65.8399 90.4901C64.7455 89.5816 63.9681 88.349 63.6199 86.97C63.2199 85.56 62.7899 84.1601 62.3499 82.7001C57.3449 84.9067 51.9304 86.0313 46.4607 86.0003C40.991 85.9693 35.5895 84.7834 30.6099 82.5201C30.1099 84.2001 29.6699 85.8501 29.1299 87.4601C28.8092 88.4739 28.2417 89.3921 27.4784 90.1323C26.7151 90.8726 25.7799 91.4116 24.7567 91.7011C23.7336 91.9906 22.6547 92.0215 21.6167 91.7909C20.5787 91.5603 19.6143 91.0755 18.81 90.3801C17.8607 89.6105 17.163 88.5748 16.8067 87.406C16.4503 86.2371 16.4515 84.9883 16.81 83.8201C17.54 81.0701 18.3999 78.3501 19.2399 75.6201C19.3433 75.3636 19.3622 75.0808 19.2938 74.8129C19.2255 74.5449 19.0735 74.3057 18.8599 74.1301C12.1516 67.19 8.2853 57.9896 8.02248 48.341C7.75965 38.6923 11.1194 29.295 17.4398 22.0001L18.1799 21.1701ZM11.1799 47.3401C11.178 54.3561 13.2561 61.2151 17.1517 67.0502C21.0474 72.8853 26.5856 77.4345 33.0662 80.1226C39.5468 82.8107 46.6788 83.5171 53.5608 82.1525C60.4428 80.7878 66.7658 77.4134 71.7304 72.4559C76.6949 67.4983 80.0782 61.1801 81.4525 54.3001C82.8269 47.42 82.1305 40.2868 79.4516 33.8024C76.7726 27.318 72.2312 21.7735 66.4016 17.8696C60.572 13.9658 53.7158 11.878 46.6998 11.8701C37.2924 11.8754 28.2715 15.6134 21.6176 22.2636C14.9636 28.9138 11.2204 37.9327 11.2099 47.3401H11.1799ZM7.02992 25.8601L25.1699 7.70008C21.0699 3.48008 12.7299 2.70005 7.33986 8.10005C1.94986 13.5 2.87995 21.8301 7.05995 25.8601H7.02992ZM86.31 25.8601C91.14 21.1201 90.8299 12.5701 85.6699 7.74006C80.1399 2.55006 72.0499 3.61006 68.1299 7.74006L86.31 25.8601ZM22.0299 77.3201C21.2699 79.9601 20.43 82.5801 19.81 85.2401C19.6786 86.0163 19.8576 86.8131 20.3085 87.4585C20.7593 88.1039 21.4458 88.5463 22.2199 88.6901C22.9947 88.8826 23.8137 88.7766 24.5141 88.3931C25.2144 88.0096 25.7447 87.3766 25.9999 86.6201C26.5499 84.9701 26.9999 83.2901 27.4799 81.6201C27.5033 81.4741 27.492 81.3247 27.4468 81.184C27.4016 81.0432 27.3238 80.9151 27.2199 80.8101C25.5799 79.6601 23.87 78.5501 22.06 77.3401L22.0299 77.3201ZM70.9199 77.6C69.1299 78.78 67.4598 79.8401 65.8298 80.9601C65.7041 81.0614 65.6049 81.1916 65.5404 81.3396C65.476 81.4876 65.4483 81.649 65.4599 81.8101C65.8999 83.4601 66.3699 85.11 66.9299 86.72C67.1929 87.47 67.7295 88.093 68.4324 88.4639C69.1353 88.8348 69.9523 88.9263 70.7199 88.72C71.1175 88.6351 71.4941 88.4716 71.8277 88.239C72.1612 88.0064 72.4448 87.7095 72.6619 87.3657C72.879 87.0219 73.0252 86.6382 73.0918 86.2371C73.1584 85.836 73.1442 85.4256 73.0499 85.0301C72.4799 82.5901 71.6799 80.1401 70.9999 77.6201L70.9199 77.6ZM54.6699 3.85005H38.6699V5.3401H54.6699V3.85005Z" fill="#FCA311"/>
<path d="M46.5898 16.6999C52.6569 16.6781 58.594 18.4574 63.649 21.8125C68.7041 25.1675 72.6497 29.9473 74.9861 35.5465C77.3225 41.1457 77.9446 47.3124 76.7736 53.2654C75.6026 59.2184 72.6912 64.69 68.4081 68.9871C64.125 73.2842 58.663 76.2134 52.7139 77.4039C46.7647 78.5943 40.5961 77.9924 34.9893 75.6743C29.3825 73.3562 24.5898 69.4263 21.2183 64.3822C17.8467 59.3382 16.048 53.407 16.0499 47.3399C16.063 39.235 19.2816 31.4643 25.0033 25.7239C30.725 19.9835 38.485 16.7395 46.5898 16.6999ZM19.4398 45.6999C20.4398 45.6999 21.3299 45.6999 22.2299 45.6999C23.3999 45.6999 24.1299 46.3599 24.0999 47.3399C24.0699 48.3199 23.3799 48.8999 22.2599 48.9199H19.4598C19.9198 63.1399 32.4598 74.3699 45.0698 74.4899C45.0698 73.0199 45.0698 71.5499 45.0698 70.0699C45.0443 69.843 45.0673 69.6133 45.1373 69.396C45.2074 69.1786 45.3229 68.9787 45.4761 68.8094C45.6293 68.6401 45.8167 68.5054 46.026 68.4141C46.2353 68.3228 46.4615 68.2771 46.6898 68.2799C47.6298 68.2799 48.2499 68.9899 48.2899 70.0999C48.2899 70.4699 48.2899 70.8399 48.2899 71.2099V74.5799C63.2199 73.8099 73.6899 61.0499 73.8699 48.9199H71.1699C69.9799 48.9199 69.2599 48.2899 69.2599 47.3099C69.2599 46.3299 69.9699 45.7099 71.1599 45.6999C72.0799 45.6999 73.0098 45.6999 73.9398 45.6999C73.2398 31.2299 60.9399 20.4199 48.2899 20.0899V23.3899C48.2899 23.8299 48.2899 24.2699 48.2899 24.6999C48.2954 25.1245 48.1338 25.5342 47.8402 25.841C47.5466 26.1477 47.1443 26.3268 46.7199 26.3399C46.5004 26.3456 46.282 26.3061 46.0785 26.2238C45.8749 26.1415 45.6906 26.0182 45.5367 25.8615C45.3829 25.7049 45.2629 25.5182 45.1843 25.3132C45.1057 25.1082 45.0702 24.8892 45.0798 24.6699C45.0798 23.1399 45.0798 21.5999 45.0798 20.0599C38.3947 20.4295 32.0813 23.2535 27.3497 27.9906C22.6182 32.7276 19.8016 39.0443 19.4398 45.7299V45.6999Z" fill="#FCA311"/>
<path d="M32.1699 37.65H35.3999V34.16C35.3999 33.79 35.3999 33.42 35.3999 33.05C35.3999 31.93 36.0399 31.24 36.9899 31.23C37.2181 31.2289 37.444 31.2757 37.653 31.3674C37.8619 31.4592 38.0492 31.5938 38.2029 31.7625C38.3565 31.9312 38.4731 32.1304 38.5449 32.347C38.6167 32.5636 38.6423 32.7929 38.6199 33.02C38.6199 34.52 38.6199 36.02 38.6199 37.6H41.8499C41.8499 36.15 41.8499 34.72 41.8499 33.29C41.8499 31.86 42.4699 31.2 43.5099 31.23C44.5499 31.26 45.0698 31.99 45.0698 33.23C45.0698 35.55 45.0698 37.86 45.0698 40.23C45.0698 44.41 42.8799 46.89 38.6199 47.4V64.27C38.6199 64.53 38.6199 64.8 38.6199 65.07C38.588 65.4738 38.405 65.8507 38.1075 66.1256C37.8101 66.4005 37.4199 66.5532 37.0149 66.5532C36.6098 66.5532 36.2197 66.4005 35.9222 66.1256C35.6248 65.8507 35.4418 65.4738 35.4099 65.07C35.4099 64.64 35.4099 64.2 35.4099 63.76V47.53C35.3099 47.45 35.2598 47.38 35.2098 47.37C31.2098 46.88 28.9598 44.37 28.9598 40.37V33.32C28.9598 31.97 29.5598 31.22 30.5898 31.24C31.6198 31.26 32.1799 32 32.1799 33.37C32.1799 34.74 32.1699 36.16 32.1699 37.65ZM41.8099 40.96H32.2198C32.2212 41.3758 32.3046 41.7873 32.4652 42.1708C32.6259 42.5544 32.8606 42.9024 33.156 43.1951C33.4514 43.4877 33.8017 43.7192 34.1868 43.8762C34.5718 44.0332 34.9841 44.1126 35.3999 44.11C36.4699 44.11 37.5499 44.11 38.6199 44.11C39.4545 44.118 40.2585 43.7955 40.8562 43.2128C41.4539 42.6301 41.7968 41.8346 41.8099 41V40.96Z" fill="#FCA311"/>
<path d="M57.9998 47.26V64.26C58.0342 64.5924 58.0342 64.9275 57.9998 65.26C57.9617 65.6508 57.7739 66.0117 57.4757 66.2671C57.1774 66.5224 56.7919 66.6525 56.3999 66.63C56.0063 66.6388 55.6241 66.4966 55.3321 66.2325C55.0401 65.9684 54.8604 65.6025 54.8298 65.21C54.8047 64.9105 54.8047 64.6095 54.8298 64.31V47.29C54.4298 47.21 54.0698 47.16 53.7198 47.08C52.1989 46.74 50.84 45.8901 49.8686 44.6714C48.8973 43.4527 48.372 41.9384 48.3799 40.38C48.3461 38.7806 48.6341 37.1907 49.2268 35.7047C49.8194 34.2188 50.7046 32.8671 51.8298 31.73C54.6098 28.9 58.2099 28.87 61.0099 31.73C62.2338 32.9396 63.1778 34.4026 63.7756 36.0163C64.3734 37.6299 64.6103 39.3549 64.4698 41.07C64.1798 44.3 61.7198 46.66 57.9998 47.26ZM56.4199 44.1C56.8499 44.1 57.2898 44.0999 57.7198 43.9699C60.2598 43.5299 61.4198 42.12 61.1998 39.56C61.0698 37.4242 60.167 35.4088 58.6599 33.89C57.1499 32.39 55.5898 32.41 54.0798 33.89C52.7653 35.2604 51.9152 37.0097 51.6499 38.89C51.1099 41.89 52.5599 43.8 55.6499 44.03C55.8499 44.12 56.1199 44.1 56.3899 44.1H56.4199Z" fill="#FCA311"/>
</svg>
