<svg width="40" height="37" viewBox="0 0 40 37" fill="none" xmlns="http://www.w3.org/2000/svg">
<path d="M0.439911 31.2601C0.519911 30.5601 0.589901 29.8601 0.679901 29.1601C0.905119 27.1152 1.36138 25.1023 2.03992 23.1601C2.29771 22.4098 2.73348 21.7331 3.30994 21.188C3.88639 20.6429 4.58636 20.2456 5.34991 20.0301C6.51322 19.6188 7.65469 19.1481 8.7699 18.6201C9.2844 18.3294 9.7729 17.9948 10.2299 17.6201C10.3999 18.2101 10.5599 18.9101 10.8099 19.6201C11.0129 20.1976 11.3368 20.7251 11.76 21.1673C12.1832 21.6095 12.6959 21.9563 13.2639 22.1844C13.8319 22.4126 14.4421 22.5168 15.0536 22.4902C15.6651 22.4636 16.2639 22.3067 16.8099 22.0301C17.3145 21.7672 17.7481 21.3862 18.0737 20.9196C18.3993 20.4529 18.6073 19.9145 18.6799 19.3501C18.7999 18.7901 18.8199 18.2101 18.8899 17.6201C19.6965 18.3902 20.6779 18.953 21.7499 19.2601C22.6899 19.6001 23.6199 19.9801 24.5399 20.3701C25.0792 20.5883 25.5658 20.9187 25.9675 21.3394C26.3693 21.76 26.6768 22.2614 26.8699 22.8101C26.9199 22.9301 26.9699 23.0501 27.0099 23.1701C27.3499 24.0101 27.3399 24.0201 26.5799 24.6401C24.3721 22.468 21.8833 20.6014 19.1799 19.0901L13.5899 30.4501C14.4699 30.6901 15.3299 30.9001 16.1699 31.1601C18.2459 31.7265 20.192 32.691 21.8999 34.0001C22.109 34.191 22.3061 34.3947 22.4899 34.6101C22.6299 34.7701 22.7499 34.9501 22.9299 35.1801C22.2599 35.3101 21.6699 35.4601 21.0599 35.5401C19.2199 35.7901 17.3899 36.0701 15.5399 36.2101C14.3617 36.2617 13.1812 36.2182 12.0099 36.0801C9.4314 35.8643 6.87767 35.4158 4.37991 34.7401C3.37991 34.4701 2.4599 34.0901 1.4899 33.7401C1.23011 33.6685 0.99698 33.5224 0.819275 33.3198C0.64157 33.1172 0.527071 32.867 0.489899 32.6001C0.465963 32.5147 0.435888 32.4312 0.399902 32.3501L0.439911 31.2601Z" fill="white"/>
<path d="M21.6398 6.68006C21.5398 7.36006 21.4198 8.03006 21.3298 8.68006C21.325 8.87516 21.3452 9.07009 21.3898 9.26007C21.4303 9.3806 21.4604 9.50439 21.4798 9.63007C21.5773 10.6082 21.3525 11.5914 20.8398 12.4301C20.7706 12.566 20.7201 12.7106 20.6898 12.8601C20.2268 15.002 18.9689 16.8889 17.1698 18.1401C16.3378 18.7819 15.3007 19.0993 14.252 19.0331C13.2033 18.9668 12.2144 18.5215 11.4698 17.7801C9.96648 16.4885 8.94441 14.7263 8.56978 12.7801C8.54984 12.6684 8.51272 12.5604 8.45977 12.4601C7.97043 11.6517 7.74012 10.7131 7.79976 9.77005C7.78645 9.58902 7.8359 9.40894 7.93978 9.26007C8.21978 8.98007 8.12976 8.67006 8.10976 8.34006C8.04976 7.34006 7.98978 6.39007 8.00978 5.41007C8.09008 4.4397 8.48713 3.52261 9.13979 2.80005C9.85143 1.94837 10.7293 1.25083 11.7198 0.750064C12.4979 0.336435 13.3922 0.195605 14.2598 0.350071C15.7604 0.598331 17.2204 1.04911 18.5998 1.69007C19.5481 2.12156 20.3449 2.82798 20.8869 3.71772C21.429 4.60746 21.6913 5.63948 21.6398 6.68006Z" fill="white"/>
<path d="M26.76 35.7099C26.25 35.0499 25.76 34.4499 25.31 33.7999C24.0066 31.943 22.2036 30.4937 20.11 29.6199C19.19 29.1999 18.25 28.8199 17.26 28.3899L20.26 22.3899C22.6856 23.9702 24.8428 25.9283 26.65 28.1899C27.04 27.7299 27.41 27.2799 27.79 26.8499C30.0259 24.2488 32.541 21.9014 35.29 19.8499C36.5353 18.9167 37.9053 18.1627 39.36 17.6099C39.4693 17.5593 39.5901 17.5385 39.71 17.5499C39.41 17.7399 39.11 17.9199 38.82 18.1199C37.1432 19.3635 35.6574 20.8459 34.41 22.5199C31.5628 26.2783 29.1758 30.364 27.3 34.6899C27.11 34.9999 26.94 35.3199 26.76 35.7099Z" fill="white"/>
</svg>
