<svg width="34" height="33" viewBox="0 0 34 33" fill="none" xmlns="http://www.w3.org/2000/svg">
<path d="M27.8999 7V15L25.8999 14.56C25.6999 14.56 25.4999 14.56 25.2899 14.49C24.1882 14.3215 23.0741 14.2479 21.9598 14.27C21.4398 14.27 21.3198 14.39 21.2198 14.88C21.2039 14.9609 21.1573 15.0326 21.0898 15.08C20.7898 15.22 20.4898 15.34 20.0898 15.49C20.0898 15.26 20.0898 15.06 20.0898 14.86C20.0898 14.5 19.8999 14.29 19.5499 14.29C18.8099 14.29 18.0698 14.29 17.3298 14.29C17.2571 14.2866 17.1847 14.299 17.1173 14.3265C17.0499 14.354 16.9893 14.3959 16.9398 14.4492C16.8903 14.5025 16.853 14.566 16.8305 14.6353C16.8081 14.7045 16.8011 14.7778 16.8099 14.85C16.8099 15.56 16.8099 16.28 16.8099 16.99C16.8094 17.1287 16.8569 17.2632 16.9444 17.3708C17.0319 17.4784 17.154 17.5523 17.2899 17.58L15.7198 19.91V19.29C15.7308 19.2077 15.7231 19.124 15.6971 19.0452C15.6712 18.9664 15.6276 18.8944 15.5699 18.8348C15.5122 18.7751 15.4417 18.7293 15.3637 18.7008C15.2858 18.6722 15.2024 18.6617 15.1198 18.67H12.9999C12.923 18.6599 12.8449 18.6677 12.7716 18.6929C12.6983 18.7181 12.6319 18.76 12.5776 18.8153C12.5233 18.8706 12.4826 18.9377 12.4587 19.0114C12.4348 19.0851 12.4283 19.1634 12.4398 19.24C12.4398 19.94 12.4398 20.63 12.4398 21.32C12.4398 21.75 12.6498 21.94 13.0798 21.95H14.9999L14.7999 25.07H2.72983C2.40462 25.0958 2.07769 25.0505 1.7717 24.9374C1.46572 24.8242 1.18795 24.6459 0.957739 24.4147C0.727531 24.1836 0.550457 23.9051 0.438574 23.5987C0.326691 23.2922 0.282793 22.9651 0.309912 22.64V7H27.8999ZM6.99985 16C6.99985 15.65 6.99985 15.3 6.99985 15C6.99985 14.7 6.79985 14.37 6.36985 14.36H4.36985C3.93985 14.36 3.74984 14.57 3.73984 15V17C3.72865 17.0858 3.7372 17.1731 3.76475 17.2551C3.7923 17.3372 3.83818 17.4119 3.8989 17.4736C3.95962 17.5353 4.0336 17.5823 4.11521 17.6111C4.19682 17.64 4.28386 17.6499 4.36985 17.64H6.4199C6.50364 17.6496 6.58836 17.6401 6.66794 17.6124C6.74752 17.5846 6.81989 17.5392 6.87949 17.4796C6.93909 17.42 6.98441 17.3477 7.01218 17.2681C7.03995 17.1885 7.04947 17.1037 7.03989 17.02C6.99989 16.62 6.99985 16.29 6.99985 16ZM15.7699 16V14.95C15.7699 14.58 15.5698 14.36 15.1998 14.36C14.4898 14.36 13.7699 14.36 13.0599 14.36C12.9822 14.3519 12.9036 14.3614 12.8301 14.3879C12.7565 14.4143 12.69 14.457 12.6352 14.5127C12.5805 14.5685 12.5389 14.6358 12.5138 14.7098C12.4886 14.7838 12.4804 14.8624 12.4898 14.94C12.4898 15.65 12.4898 16.35 12.4898 17.06C12.4793 17.1365 12.4859 17.2144 12.5093 17.2881C12.5326 17.3617 12.5719 17.4292 12.6246 17.4857C12.6773 17.5423 12.7419 17.5863 12.8137 17.6147C12.8855 17.6431 12.9628 17.6552 13.0399 17.65C13.7599 17.65 14.4798 17.65 15.1898 17.65C15.5698 17.65 15.7599 17.42 15.7699 17.04V16ZM5.32981 13.26H6.4199C6.49708 13.2676 6.57492 13.2581 6.64805 13.2323C6.72117 13.2064 6.7878 13.1649 6.84312 13.1105C6.89843 13.0562 6.94102 12.9904 6.96812 12.9177C6.99521 12.845 7.00608 12.7673 6.99985 12.69C6.99985 11.98 6.99985 11.28 6.99985 10.57C6.99985 10.17 6.77985 9.98 6.36985 9.97H4.3198C4.23684 9.96204 4.15324 9.9727 4.07493 10.0012C3.99661 10.0297 3.92561 10.0753 3.86716 10.1347C3.80872 10.1941 3.76425 10.2658 3.73704 10.3446C3.70982 10.4233 3.7005 10.5072 3.70981 10.59C3.70981 11.27 3.70981 11.95 3.70981 12.64C3.70981 13.06 3.91983 13.25 4.34983 13.26H5.32981ZM22.8999 13.26H23.8999C24.3099 13.26 24.5099 13.07 24.5199 12.66C24.5199 11.97 24.5199 11.27 24.5199 10.58C24.5278 10.497 24.5171 10.4134 24.4886 10.3351C24.4601 10.2567 24.4146 10.1858 24.3552 10.1273C24.2958 10.0689 24.224 10.0244 24.1452 9.99719C24.0665 9.96998 23.9827 9.96069 23.8999 9.97H21.8999C21.8171 9.96069 21.7332 9.96998 21.6544 9.99719C21.5756 10.0244 21.504 10.0689 21.4446 10.1273C21.3851 10.1858 21.3395 10.2567 21.311 10.3351C21.2825 10.4134 21.2719 10.497 21.2799 10.58C21.2799 11.27 21.2799 11.97 21.2799 12.66C21.2705 12.7402 21.2792 12.8215 21.3054 12.8978C21.3316 12.9742 21.3745 13.0437 21.4311 13.1013C21.4877 13.1589 21.5566 13.203 21.6325 13.2305C21.7085 13.2579 21.7895 13.268 21.8698 13.26C22.1998 13.19 22.5499 13.18 22.9099 13.18L22.8999 13.26ZM8.09983 15.97V16.97C8.09983 17.42 8.29985 17.62 8.74985 17.63H10.7499C10.8362 17.6395 10.9236 17.6295 11.0056 17.6007C11.0876 17.5719 11.162 17.525 11.2235 17.4636C11.2849 17.4022 11.3318 17.3277 11.3606 17.2457C11.3894 17.1638 11.3994 17.0764 11.3899 16.99C11.3899 16.3233 11.3899 15.6567 11.3899 14.99C11.3992 14.9072 11.3899 14.8233 11.3626 14.7446C11.3354 14.6658 11.291 14.5941 11.2325 14.5347C11.1741 14.4753 11.1031 14.4297 11.0248 14.4012C10.9464 14.3727 10.8628 14.362 10.7799 14.37H8.6998C8.61962 14.3606 8.53838 14.3694 8.46201 14.3955C8.38564 14.4217 8.31609 14.4647 8.25852 14.5213C8.20096 14.5779 8.15684 14.6467 8.12937 14.7226C8.1019 14.7985 8.09181 14.8797 8.09983 14.96C8.09983 15.2 8.10984 15.55 8.10984 15.89L8.09983 15.97ZM5.35984 18.74H4.2999C4.22284 18.7311 4.14474 18.7392 4.07114 18.7637C3.99755 18.7882 3.93015 18.8286 3.87388 18.882C3.81761 18.9355 3.77381 19.0006 3.74546 19.0728C3.71711 19.145 3.70491 19.2226 3.70981 19.3C3.70981 20.02 3.70981 20.73 3.70981 21.45C3.70381 21.5277 3.71477 21.6058 3.7418 21.6789C3.76882 21.752 3.81133 21.8183 3.86643 21.8734C3.92154 21.9285 3.98792 21.9711 4.06101 21.9981C4.1341 22.0251 4.2122 22.036 4.28989 22.03H6.39988C6.47784 22.0392 6.55683 22.0309 6.6312 22.0058C6.70557 21.9807 6.77348 21.9393 6.82993 21.8848C6.88639 21.8303 6.92996 21.7638 6.95762 21.6904C6.98528 21.6169 6.9963 21.5382 6.98984 21.46C6.98984 20.75 6.98984 20.03 6.98984 19.31C6.98984 18.93 6.76985 18.75 6.36985 18.74H5.35984ZM9.74985 9.95999H8.74985C8.32985 9.95999 8.12985 10.16 8.11985 10.56C8.11985 11.27 8.11985 11.97 8.11985 12.67C8.11041 12.7476 8.11862 12.8263 8.14377 12.9002C8.16893 12.9742 8.21035 13.0416 8.26511 13.0973C8.31988 13.153 8.38653 13.1957 8.46006 13.2221C8.53358 13.2485 8.61208 13.2581 8.68979 13.25H10.8099C10.8925 13.2583 10.9759 13.2477 11.0538 13.2192C11.1318 13.1907 11.2021 13.1449 11.2599 13.0852C11.3176 13.0256 11.3611 12.9537 11.3871 12.8748C11.413 12.796 11.4209 12.7123 11.4099 12.63C11.4099 11.94 11.4099 11.26 11.4099 10.58C11.4176 10.4966 11.4068 10.4126 11.3784 10.3339C11.35 10.2552 11.3045 10.1837 11.2453 10.1245C11.1862 10.0654 11.1147 10.0199 11.036 9.99149C10.9573 9.96305 10.8732 9.9523 10.7899 9.95999H9.74985ZM12.4798 11.59C12.4798 11.95 12.4798 12.32 12.4798 12.68C12.4708 12.7544 12.4784 12.8299 12.5019 12.9011C12.5255 12.9723 12.5644 13.0374 12.6159 13.0919C12.6675 13.1463 12.7305 13.1887 12.8003 13.216C12.8701 13.2433 12.9451 13.255 13.0199 13.25H15.1998C15.2749 13.256 15.3504 13.2457 15.4211 13.2197C15.4918 13.1937 15.556 13.1526 15.6092 13.0994C15.6625 13.0461 15.7036 12.9819 15.7296 12.9113C15.7556 12.8406 15.7659 12.7651 15.7599 12.69C15.7599 11.97 15.7599 11.25 15.7599 10.54C15.7656 10.4654 15.7554 10.3904 15.7301 10.32C15.7047 10.2496 15.6647 10.1854 15.6128 10.1316C15.5608 10.0777 15.498 10.0355 15.4286 10.0076C15.3591 9.97979 15.2846 9.96696 15.2098 9.97C14.4798 9.97 13.7499 9.97 13.0299 9.97C12.9556 9.96548 12.8812 9.97695 12.8117 10.0036C12.7423 10.0303 12.6794 10.0716 12.6273 10.1247C12.5752 10.1777 12.5349 10.2414 12.5095 10.3113C12.4841 10.3813 12.474 10.4558 12.4798 10.53C12.4898 10.8 12.4898 11.16 12.4898 11.51L12.4798 11.59ZM20.1499 11.59C20.1499 11.24 20.1499 10.89 20.1499 10.53C20.1559 10.4523 20.1449 10.3742 20.1179 10.3011C20.0909 10.2281 20.0484 10.1617 19.9933 10.1066C19.9382 10.0515 19.8718 10.0089 19.7987 9.9819C19.7256 9.95488 19.6475 9.94401 19.5698 9.95001C18.8598 9.95001 18.1399 9.95001 17.4299 9.95001C17.3548 9.94398 17.2793 9.95431 17.2086 9.98032C17.1379 10.0063 17.0737 10.0474 17.0205 10.1006C16.9672 10.1539 16.9261 10.2181 16.9001 10.2888C16.8741 10.3594 16.8638 10.4349 16.8698 10.51C16.8698 11.22 16.8698 11.94 16.8698 12.66C16.8641 12.7346 16.8743 12.8096 16.8996 12.88C16.925 12.9504 16.965 13.0146 17.0169 13.0685C17.0689 13.1223 17.1316 13.1645 17.201 13.1924C17.2705 13.2202 17.3451 13.2331 17.4199 13.23H19.5998C19.6777 13.2368 19.7561 13.2259 19.8292 13.1982C19.9023 13.1705 19.9683 13.1266 20.0221 13.0699C20.0759 13.0133 20.1161 12.9451 20.14 12.8707C20.1639 12.7963 20.1707 12.7174 20.1599 12.64C20.1699 12.23 20.1599 11.87 20.1599 11.52L20.1499 11.59ZM9.74985 18.73H8.68979C8.61238 18.7192 8.53364 18.726 8.4592 18.7498C8.38477 18.7737 8.31656 18.814 8.25986 18.8678C8.20317 18.9216 8.1594 18.9875 8.13169 19.0606C8.10398 19.1337 8.09306 19.2121 8.09983 19.29C8.09983 20.01 8.09983 20.72 8.09983 21.44C8.09382 21.5177 8.10479 21.5958 8.13181 21.6689C8.15884 21.7419 8.20134 21.8083 8.25645 21.8634C8.31155 21.9185 8.37793 21.9611 8.45103 21.9881C8.52412 22.0151 8.60221 22.026 8.67991 22.02H10.7899C10.8702 22.026 10.9508 22.0146 11.0263 21.9865C11.1018 21.9585 11.1704 21.9145 11.2274 21.8575C11.2843 21.8006 11.3284 21.732 11.3564 21.6565C11.3845 21.581 11.3958 21.5003 11.3899 21.42C11.3899 20.71 11.3899 20.01 11.3899 19.3C11.3945 19.2222 11.3823 19.1443 11.354 19.0717C11.3257 18.999 11.2821 18.9334 11.226 18.8792C11.17 18.8251 11.1028 18.7837 11.0293 18.7579C10.9557 18.7322 10.8775 18.7227 10.7999 18.73H9.74985Z" fill="white"/>
<path d="M24.5499 32.6601C22.8573 32.6601 21.2027 32.1583 19.7952 31.2181C18.3878 30.278 17.2906 28.9417 16.6424 27.3781C15.9942 25.8146 15.8241 24.094 16.1536 22.4338C16.4831 20.7736 17.2973 19.2483 18.4935 18.0507C19.6896 16.8532 21.2139 16.0372 22.8737 15.7057C24.5335 15.3743 26.2544 15.5424 27.8187 16.1888C29.383 16.8351 30.7205 17.9307 31.6623 19.3371C32.6041 20.7435 33.1078 22.3975 33.1098 24.09C33.1111 25.215 32.8907 26.3292 32.4611 27.3689C32.0315 28.4086 31.4011 29.3534 30.6061 30.1493C29.8111 30.9453 28.8671 31.5767 27.8279 32.0075C26.7887 32.4383 25.6748 32.6601 24.5499 32.6601ZM21.6398 19.93H21.2398C20.4998 19.93 19.7598 19.93 19.0298 19.93C18.8899 19.9255 18.7506 19.9504 18.6209 20.0031C18.4912 20.0558 18.374 20.1352 18.2769 20.236C18.1798 20.3369 18.1049 20.457 18.0572 20.5886C18.0095 20.7202 17.9899 20.8604 17.9998 21.0001V23.05C18.0034 23.4483 18.1368 23.8345 18.3798 24.15C18.4723 24.2861 18.5243 24.4456 18.5298 24.61C18.5298 25.71 18.5298 26.8201 18.5298 27.9201C18.5057 28.1343 18.5303 28.3512 18.6019 28.5546C18.6734 28.7579 18.7899 28.9425 18.9428 29.0944C19.0957 29.2464 19.2811 29.3618 19.4849 29.432C19.6887 29.5023 19.9057 29.5255 20.1198 29.5001H28.9998C29.2133 29.525 29.4297 29.5017 29.6331 29.4321C29.8365 29.3624 30.0217 29.2481 30.1751 29.0976C30.3286 28.947 30.4464 28.764 30.5198 28.562C30.5933 28.3599 30.6206 28.144 30.5998 27.93C30.5998 26.83 30.5998 25.74 30.5998 24.65C30.6254 24.4694 30.6794 24.2939 30.7598 24.1301C30.9183 23.785 31.0357 23.4225 31.1098 23.05C31.1698 22.37 31.1098 21.6901 31.1098 21.0001C31.1233 20.8553 31.1051 20.7093 31.0563 20.5723C31.0076 20.4353 30.9296 20.3105 30.8277 20.2067C30.7258 20.103 30.6026 20.0227 30.4665 19.9714C30.3304 19.9202 30.1849 19.8992 30.0399 19.9101C29.4199 19.9101 28.8098 19.9101 28.1898 19.9101H27.4099C27.4099 19.7201 27.4099 19.5801 27.4099 19.4401C27.3999 19.071 27.2495 18.7196 26.9893 18.4576C26.7292 18.1956 26.3788 18.0426 26.0098 18.0301C25.0098 18.0301 24.0098 18.0301 23.0098 18.0301C22.6348 18.0429 22.2791 18.1996 22.0165 18.4677C21.754 18.7359 21.6047 19.0948 21.5998 19.4701L21.6398 19.93Z" fill="white"/>
<path d="M8.83979 1.91992C8.83979 2.57992 8.83979 3.2199 8.83979 3.8699C8.82738 4.14326 8.88196 4.41552 8.99872 4.66299C9.11549 4.91047 9.29095 5.12569 9.50983 5.28992C9.98681 5.53878 10.5169 5.66873 11.0549 5.66873C11.5929 5.66873 12.1228 5.53878 12.5998 5.28992C12.8104 5.13074 12.9796 4.92305 13.0927 4.68454C13.2059 4.44602 13.2597 4.18373 13.2498 3.91992V1.91992H14.9998V2.2099C14.9998 2.7899 14.9998 3.36992 14.9998 3.94992C14.9856 4.36387 15.1315 4.76735 15.4072 5.07651C15.6828 5.38567 16.0669 5.57669 16.4798 5.60989C16.9451 5.65991 17.4145 5.65991 17.8798 5.60989C18.2945 5.58661 18.6836 5.402 18.9639 5.09552C19.2443 4.78904 19.3935 4.38503 19.3798 3.96991C19.3798 3.41991 19.3798 2.8599 19.3798 2.2999V1.91992H21.1599C21.1599 2.42992 21.1599 2.91992 21.1599 3.44992C21.0891 3.75094 21.0962 4.06502 21.1805 4.36252C21.2648 4.66002 21.4235 4.93112 21.6417 5.15027C21.8598 5.36942 22.1302 5.52938 22.4273 5.61505C22.7244 5.70072 23.0385 5.70929 23.3398 5.63992C23.5898 5.63992 23.8398 5.63992 24.0898 5.63992C24.4973 5.59979 24.8748 5.40777 25.1472 5.10205C25.4195 4.79633 25.5669 4.39929 25.5599 3.9899C25.5599 3.3199 25.5599 2.6399 25.5599 1.9899C25.8471 1.97372 26.1345 2.01453 26.4058 2.10999C26.6772 2.20544 26.927 2.35366 27.1408 2.54608C27.3546 2.7385 27.5281 2.97133 27.6516 3.23114C27.775 3.49096 27.8457 3.77262 27.8598 4.05991C27.8598 4.65991 27.8598 5.25992 27.8598 5.88992H0.369818C0.314716 5.15762 0.314716 4.42221 0.369818 3.68991C0.468784 3.1826 0.75051 2.72925 1.16157 2.41589C1.57262 2.10253 2.08439 1.95094 2.5998 1.9899V3.81992C2.56882 4.07379 2.5962 4.33138 2.67988 4.57306C2.76356 4.81474 2.90138 5.03411 3.08271 5.21448C3.26404 5.39484 3.48414 5.53144 3.72626 5.61383C3.96839 5.69622 4.2261 5.72224 4.4798 5.68991H5.35981C5.57688 5.68862 5.79161 5.64427 5.9914 5.55939C6.1912 5.47451 6.37212 5.35081 6.52375 5.19547C6.67537 5.04012 6.79457 4.85621 6.87458 4.65442C6.95459 4.45263 6.99379 4.23694 6.98981 4.0199C6.98981 3.3499 6.98981 2.6799 6.98981 2.0199L8.83979 1.91992Z" fill="white"/>
<path d="M9.93987 2.25993C9.93987 1.74993 9.93987 1.25993 9.93987 0.729934C9.93987 0.199934 10.1399 0.0499111 10.6299 0.0499111H11.5799C11.6541 0.0457649 11.7284 0.0570223 11.7981 0.0829312C11.8678 0.10884 11.9315 0.14885 11.985 0.200485C12.0385 0.25212 12.0808 0.314247 12.1092 0.38298C12.1376 0.451713 12.1514 0.525582 12.15 0.599929C12.15 1.72993 12.15 2.84993 12.15 3.97993C12.1529 4.05248 12.1406 4.12483 12.1138 4.19234C12.0871 4.25984 12.0465 4.321 11.9947 4.37187C11.9429 4.42274 11.8809 4.46219 11.8129 4.48769C11.7449 4.51319 11.6724 4.52416 11.5999 4.51991C11.2399 4.51991 10.8799 4.51991 10.5099 4.51991C10.4293 4.52199 10.3491 4.50661 10.275 4.47484C10.2008 4.44306 10.1344 4.39566 10.0803 4.33583C10.0261 4.276 9.98557 4.20518 9.96135 4.12822C9.93713 4.05126 9.92976 3.96998 9.93987 3.88994C9.92987 3.34994 9.93987 2.80993 9.93987 2.25993Z" fill="white"/>
<path d="M24.5098 2.25991V3.8699C24.5098 4.3099 24.3098 4.5199 23.8698 4.5299C23.4298 4.5399 23.2298 4.5299 22.8698 4.5299C22.7869 4.53786 22.7032 4.5272 22.6248 4.49871C22.5465 4.47022 22.4756 4.4246 22.4172 4.3652C22.3588 4.30579 22.3143 4.2341 22.2871 4.15533C22.2599 4.07656 22.2505 3.99272 22.2598 3.9099C22.2598 2.8299 22.2598 1.74991 22.2598 0.669914C22.2598 0.249914 22.4699 0.0498882 22.8999 0.0498882H23.8999C23.9827 0.0405779 24.0665 0.0498955 24.1452 0.0771099C24.224 0.104324 24.2958 0.148759 24.3552 0.207206C24.4146 0.265654 24.4601 0.336624 24.4886 0.414939C24.5171 0.493255 24.5278 0.576948 24.5199 0.659904C24.5199 1.1899 24.5098 1.72991 24.5098 2.25991Z" fill="white"/>
<path d="M5.99984 2.30009V3.87009C5.99984 4.32009 5.79983 4.5201 5.35983 4.5301C4.91983 4.5401 4.72988 4.5301 4.40988 4.5301C4.32692 4.53806 4.2432 4.5274 4.16488 4.49891C4.08656 4.47042 4.01556 4.4248 3.95712 4.36539C3.89867 4.30599 3.8542 4.23429 3.82699 4.15552C3.79978 4.07676 3.79058 3.99292 3.79989 3.9101C3.79989 2.8301 3.79989 1.75011 3.79989 0.670112C3.78891 0.587838 3.79663 0.504136 3.8226 0.4253C3.84856 0.346463 3.89207 0.274527 3.94979 0.214881C4.00751 0.155235 4.07803 0.109415 4.15597 0.0808782C4.23391 0.0523414 4.31728 0.0418111 4.39987 0.050086H5.39987C5.48229 0.0404743 5.56575 0.0496541 5.64413 0.0769109C5.72251 0.104168 5.79382 0.148815 5.8525 0.207496C5.91118 0.266176 5.95574 0.337364 5.983 0.415748C6.01025 0.494131 6.01946 0.577673 6.00985 0.660102L5.99984 2.30009Z" fill="white"/>
<path d="M18.3198 2.33005C18.3198 2.84005 18.3198 3.33006 18.3198 3.87006C18.3198 4.41006 18.1199 4.52006 17.6499 4.53006C17.3599 4.53006 17.0599 4.53006 16.7699 4.53006C16.3199 4.53006 16.1199 4.32007 16.1199 3.88007V0.710052C16.1199 0.250052 16.3199 0.0500488 16.7899 0.0500488H17.6799C18.1199 0.0500488 18.3198 0.250073 18.3198 0.700073C18.3198 1.15007 18.3198 1.79005 18.3198 2.33005Z" fill="white"/>
<path d="M29.4899 25.1499C29.4991 25.2095 29.4991 25.2702 29.4899 25.3299V27.9999C29.4899 28.3999 29.3999 28.4899 28.9999 28.4899H19.9999C19.5999 28.4899 19.5199 28.4099 19.5199 27.9999V25.3799C19.5199 25.2999 19.5199 25.2299 19.5199 25.1999L22.0698 25.6599C22.1275 25.6803 22.18 25.7133 22.2233 25.7566C22.2665 25.7998 22.2994 25.8522 22.3198 25.9099C22.4425 26.3869 22.7204 26.8095 23.1096 27.1113C23.4988 27.4131 23.9773 27.5768 24.4698 27.5768C24.9624 27.5768 25.4409 27.4131 25.8301 27.1113C26.2193 26.8095 26.4972 26.3869 26.6199 25.9099C26.6398 25.8536 26.6715 25.8021 26.7129 25.759C26.7543 25.7159 26.8044 25.6821 26.8599 25.6599L29.4899 25.1499Z" fill="white"/>
<path d="M18.9999 21H20.7899V21.82C20.7768 21.9797 20.7981 22.1403 20.8523 22.291C20.9065 22.4418 20.9924 22.5791 21.1042 22.6938C21.2161 22.8085 21.3513 22.8978 21.5006 22.9558C21.6499 23.0138 21.8099 23.0391 21.9698 23.03H27.0599C27.2168 23.0375 27.3735 23.0116 27.5197 22.954C27.6658 22.8965 27.7981 22.8086 27.9077 22.6961C28.0174 22.5836 28.1018 22.4491 28.1556 22.3015C28.2095 22.154 28.2313 21.9967 28.2198 21.84V21H29.9999C29.9999 21.76 29.9999 22.49 29.9999 23.21C29.96 23.342 29.8932 23.4644 29.8037 23.5694C29.7142 23.6743 29.6039 23.7597 29.4799 23.82C28.9199 24.05 28.3199 24.2 27.7399 24.38H27.4999C27.2749 24.4691 27.0254 24.4736 26.7974 24.3927C26.5694 24.3118 26.3784 24.1509 26.2599 23.94C26.0474 23.6382 25.7602 23.3968 25.4263 23.2394C25.0924 23.0821 24.7233 23.0142 24.3552 23.0424C23.9872 23.0706 23.6329 23.194 23.3269 23.4005C23.0209 23.6069 22.7738 23.8893 22.6099 24.22C22.4799 24.44 22.3699 24.51 22.1399 24.46C21.4999 24.32 20.8699 24.21 20.2399 24.07C20.0185 24.0094 19.8065 23.9185 19.6099 23.8C19.4197 23.7154 19.2607 23.5737 19.1549 23.3944C19.0491 23.2152 19.0019 23.0073 19.0199 22.8C19.0699 22.26 18.9999 21.66 18.9999 21Z" fill="white"/>
<path d="M21.9999 22.0001V21.1001H27.1898V22.0001H21.9999Z" fill="white"/>
<path d="M24.56 24.21C24.7806 24.212 24.9957 24.2791 25.1784 24.4029C25.361 24.5268 25.5031 24.7018 25.5866 24.906C25.6701 25.1103 25.6914 25.3346 25.6479 25.5509C25.6043 25.7673 25.4979 25.9659 25.3418 26.1219C25.1858 26.278 24.9871 26.3844 24.7708 26.428C24.5545 26.4715 24.3301 26.4502 24.1259 26.3666C23.9217 26.2831 23.7467 26.1411 23.6228 25.9584C23.499 25.7758 23.432 25.5607 23.43 25.34C23.4286 25.1912 23.4569 25.0437 23.5132 24.906C23.5695 24.7683 23.6527 24.6432 23.7579 24.538C23.8631 24.4328 23.9882 24.3496 24.1259 24.2933C24.2636 24.237 24.4112 24.2087 24.56 24.21Z" fill="white"/>
<path d="M26.3498 19.9101H22.7799C22.6599 19.2801 22.7798 19.1401 23.3898 19.1401H25.6699C26.3199 19.1401 26.3898 19.2201 26.3498 19.9101Z" fill="white"/>
</svg>
