<svg width="33" height="33" viewBox="0 0 33 33" fill="none" xmlns="http://www.w3.org/2000/svg">
<path d="M0.369873 19.0001V0.340088H32.9999V19.0001H0.369873ZM16.6898 17.8601H27.5898C28.1498 17.8601 28.3299 17.6901 28.3699 17.1301C28.4061 16.4072 28.7096 15.7235 29.2214 15.2117C29.7333 14.6998 30.417 14.3963 31.1399 14.3601C31.6699 14.3601 31.8599 14.1501 31.8599 13.6201V5.75009C31.8599 5.24009 31.6699 5.05008 31.1599 5.02008C30.4299 4.98619 29.7387 4.68167 29.2211 4.16586C28.7034 3.65006 28.3964 2.95996 28.3599 2.2301C28.3599 1.7101 28.1499 1.52008 27.6099 1.52008H5.77991C5.23991 1.52008 5.0499 1.7001 5.0199 2.2301C4.98807 2.95983 4.68385 3.65111 4.16736 4.1676C3.65087 4.68409 2.95959 4.98826 2.22986 5.02008C1.69986 5.02008 1.5199 5.24009 1.5199 5.78009V13.5801C1.5199 14.1601 1.68991 14.3301 2.27991 14.3601C2.97187 14.4085 3.62444 14.7001 4.12219 15.1832C4.61995 15.6663 4.93079 16.3099 4.99988 17.0001C4.99988 17.6801 5.17988 17.8001 5.87988 17.8001L16.6898 17.8601Z" fill="white"/>
<path d="M24.8699 22.53L22.9299 25.26L22.6898 25.58C22.5398 25.79 22.4299 26.05 22.6099 26.25C22.7638 26.4215 22.9722 26.5345 23.1998 26.57C24.2698 26.57 25.3399 26.57 26.4099 26.57H26.8599L26.4498 26.85L16.9799 32.71C16.8199 32.81 16.6899 32.89 16.4899 32.77L6.69983 26.7L6.56982 26.57H10.0999C10.2321 26.5894 10.3672 26.5694 10.4882 26.5125C10.6091 26.4556 10.7106 26.3643 10.7799 26.25C10.839 26.1287 10.8582 25.9918 10.8348 25.8589C10.8115 25.726 10.7468 25.6039 10.6499 25.51L8.50989 22.51L24.8699 22.53Z" fill="white"/>
<path d="M6.16992 16.64C6.02652 15.7753 5.61556 14.9773 4.99487 14.3584C4.37419 13.7395 3.57495 13.3309 2.70984 13.19V6.11996C3.573 6.00012 4.37535 5.60773 4.99988 4.99997C5.62138 4.37895 6.03091 3.57749 6.16992 2.70996H27.2399C27.3804 3.57587 27.7904 4.37541 28.4116 4.99481C29.0328 5.61421 29.8335 6.02194 30.6998 6.15997V13.21C29.8327 13.35 29.0317 13.7597 28.4106 14.3808C27.7895 15.0019 27.3799 15.8029 27.2399 16.67L6.16992 16.64ZM10.8599 9.63998C10.8599 10.7933 11.2015 11.9208 11.8414 12.8803C12.4814 13.8398 13.391 14.5883 14.4558 15.0315C15.5206 15.4747 16.6928 15.5926 17.8246 15.3705C18.9563 15.1484 19.997 14.5962 20.8153 13.7834C21.6336 12.9707 22.1929 11.9338 22.4227 10.8036C22.6526 9.67342 22.5426 8.50047 22.1067 7.43268C21.6708 6.36489 20.9285 5.45005 19.9734 4.80356C19.0183 4.15707 17.8932 3.80786 16.7399 3.79996C15.9674 3.79599 15.2018 3.94506 14.4873 4.23853C13.7728 4.53199 13.1235 4.96406 12.5768 5.5098C12.0301 6.05554 11.5969 6.70415 11.3022 7.41818C11.0076 8.13221 10.8572 8.89754 10.8599 9.66998V9.63998Z" fill="white"/>
<path d="M16.6898 5.00001C17.6143 4.99803 18.5187 5.27049 19.2882 5.78288C20.0577 6.29526 20.6578 7.02451 21.0125 7.87825C21.3672 8.73198 21.4605 9.6718 21.2807 10.5786C21.1008 11.4854 20.6558 12.3185 20.0021 12.9722C19.3484 13.6259 18.5154 14.0709 17.6085 14.2507C16.7017 14.4306 15.7618 14.3373 14.9081 13.9826C14.0544 13.6279 13.3251 13.0278 12.8128 12.2583C12.3004 11.4888 12.0279 10.5845 12.0299 9.66001C12.0378 8.42653 12.5312 7.2458 13.4035 6.37358C14.2757 5.50136 15.4563 5.00788 16.6898 5.00001ZM16.0999 6.17002H15.5099C15.1043 6.17286 14.7124 6.3173 14.402 6.57841C14.0916 6.83952 13.8822 7.20088 13.8099 7.60002C13.79 7.85296 13.79 8.10706 13.8099 8.36C13.7889 8.61266 13.8229 8.8669 13.9098 9.10508C13.9967 9.34326 14.1343 9.5597 14.3131 9.73945C14.4919 9.9192 14.7076 10.058 14.9453 10.1461C15.183 10.2343 15.4371 10.2697 15.6898 10.25H17.7699C18.2599 10.25 18.4699 10.46 18.4699 10.96V11.29C18.4699 11.79 18.2599 11.99 17.7599 11.99C17.2599 11.99 16.4899 11.99 15.8599 11.99C15.4099 11.99 15.0298 11.93 14.9498 11.42H13.8099C13.8055 11.8297 13.9554 12.2259 14.2299 12.53C14.4675 12.7837 14.7653 12.9735 15.0956 13.0819C15.4259 13.1902 15.7781 13.2137 16.1199 13.15V13.71H17.2799V13.15H17.9099C18.3526 13.1327 18.7724 12.9491 19.0857 12.6358C19.399 12.3226 19.5826 11.9027 19.5999 11.46C19.5999 11.25 19.5999 11.05 19.5999 10.84C19.6026 10.6051 19.5581 10.3721 19.4689 10.1548C19.3796 9.93746 19.2475 9.74035 19.0805 9.57518C18.9134 9.41 18.7149 9.28016 18.4966 9.19337C18.2783 9.10658 18.0448 9.06463 17.8099 9.07002H15.9999C15.0799 9.07002 14.9999 8.95002 14.9999 8.01002V7.9C14.9985 7.82346 15.0126 7.74744 15.0413 7.67646C15.0699 7.60548 15.1126 7.54099 15.1668 7.48686C15.2209 7.43273 15.2854 7.39007 15.3563 7.3614C15.4273 7.33273 15.5033 7.31866 15.5798 7.32002H17.9199C17.9991 7.31843 18.0777 7.33335 18.1508 7.36384C18.2239 7.39434 18.2898 7.43975 18.3444 7.49714C18.3989 7.55453 18.441 7.62265 18.4678 7.69718C18.4946 7.77172 18.5055 7.85101 18.4999 7.93C18.4999 8.11 18.4999 8.29002 18.4999 8.45002H19.6599C19.7528 7.89607 19.6311 7.32753 19.3198 6.86C19.0823 6.5713 18.7707 6.35272 18.4183 6.22764C18.066 6.10257 17.6863 6.07572 17.3198 6.15V5.59001H16.1599L16.0999 6.17002Z" fill="white"/>
</svg>
