<svg width="33" height="27" viewBox="0 0 33 27" fill="none" xmlns="http://www.w3.org/2000/svg">
<path d="M13.8499 26.42C13.1299 25.48 12.4099 24.64 11.8499 23.73C10.0177 21.1186 7.48323 19.0799 4.53992 17.85C3.23992 17.25 1.91992 16.72 0.539917 16.12L4.69983 7.65996C8.11876 9.87874 11.1577 12.6341 13.6998 15.82C14.2498 15.17 14.7699 14.55 15.3099 13.94C18.4526 10.2598 21.9905 6.93651 25.8599 4.02996C27.6111 2.71143 29.5403 1.64753 31.5898 0.869953C31.7399 0.800744 31.9048 0.769826 32.0698 0.779957C31.6598 1.04996 31.2298 1.29995 30.8298 1.58995C28.4666 3.33658 26.3741 5.42239 24.6199 7.77996C20.6134 13.0623 17.256 18.8068 14.6199 24.89C14.3299 25.38 14.0999 25.86 13.8499 26.42Z" fill="white"/>
</svg>
